<svg width="35" height="35" viewBox="0 0 35 35" fill="none" xmlns="http://www.w3.org/2000/svg">
<path d="M25.2554 0.112292C27.0317 0.193958 28.2596 0.455 29.3942 0.895417C30.4699 1.29764 31.4439 1.93199 32.2467 2.75333C33.068 3.55613 33.7024 4.53005 34.1046 5.60583C34.545 6.74188 34.806 7.96833 34.8877 9.74458C34.9883 11.9467 35 12.7225 35 17.5C35 22.2775 34.9883 23.0533 34.8877 25.2554C34.806 27.0317 34.545 28.2596 34.1046 29.3956C33.7022 30.4709 33.0678 31.4443 32.2467 32.2467C31.4439 33.0681 30.47 33.7024 29.3942 34.1046C28.2581 34.545 27.0317 34.806 25.2554 34.8877C23.0533 34.9883 22.279 35 17.5 35C12.721 35 11.9452 34.9883 9.74458 34.8877C7.96833 34.806 6.74042 34.545 5.60437 34.1046C4.5291 33.7022 3.55567 33.0679 2.75333 32.2467C1.93199 31.4439 1.29764 30.4699 0.895417 29.3942C0.455 28.2581 0.193958 27.0317 0.112292 25.2554C0.0116667 23.0563 0 22.2804 0 17.5C0 12.721 0.0116667 11.9438 0.112292 9.74458C0.193958 7.96833 0.455 6.74042 0.895417 5.60583C1.29764 4.53005 1.93199 3.55613 2.75333 2.75333C3.55571 1.93217 4.52912 1.29783 5.60437 0.895417C6.74188 0.455 7.96833 0.193958 9.74458 0.112292C11.9438 0.0116667 12.7196 0 17.5 0C22.279 0 23.0563 0.0116667 25.2554 0.112292ZM17.5 3.88938C12.775 3.88938 12.0517 3.89958 9.92104 3.99729C8.56917 4.05854 7.75833 4.23063 7.01313 4.52083C6.37875 4.76875 5.97479 5.03125 5.50229 5.50229C5.02979 5.97479 4.76729 6.37875 4.52083 7.01313C4.23208 7.75688 4.05854 8.56917 3.99729 9.92104C3.89958 12.0517 3.88938 12.775 3.88938 17.5C3.88938 22.225 3.89958 22.9483 3.99729 25.079C4.05854 26.4308 4.23063 27.2417 4.52083 27.9854C4.76875 28.6213 5.03125 29.0252 5.50229 29.4977C5.97479 29.9702 6.37875 30.2327 7.01313 30.4792C7.75688 30.7679 8.56917 30.9415 9.92104 31.0027C12.0531 31.1004 12.7765 31.1106 17.5 31.1106C22.225 31.1106 22.9469 31.1004 25.079 31.0027C26.4308 30.9415 27.2417 30.7694 27.9869 30.4792C28.6213 30.2313 29.0252 29.9688 29.4977 29.4977C29.9702 29.0252 30.2327 28.6213 30.4792 27.9869C30.7679 27.2431 30.9415 26.4308 31.0027 25.079C31.1004 22.9469 31.1106 22.2235 31.1106 17.5C31.1106 12.7765 31.1004 12.0531 31.0027 9.92104C30.9415 8.56917 30.7694 7.75833 30.4792 7.01458C30.2729 6.44158 29.937 5.92401 29.4977 5.50229C29.076 5.06291 28.5584 4.72701 27.9854 4.52083C27.2417 4.23208 26.4294 4.05854 25.0775 3.99729C22.9469 3.89958 22.2235 3.88938 17.4985 3.88938H17.5ZM17.5 26.5738C15.0935 26.5738 12.7855 25.6178 11.0839 23.9161C9.38223 22.2145 8.42625 19.9065 8.42625 17.5C8.42625 15.0935 9.38223 12.7855 11.0839 11.0839C12.7855 9.38223 15.0935 8.42625 17.5 8.42625C19.9065 8.42625 22.2145 9.38223 23.9161 11.0839C25.6178 12.7855 26.5738 15.0935 26.5738 17.5C26.5738 19.9065 25.6178 22.2145 23.9161 23.9161C22.2145 25.6178 19.9065 26.5738 17.5 26.5738ZM17.5 22.6858C18.8754 22.6858 20.1944 22.1395 21.1669 21.1669C22.1395 20.1944 22.6858 18.8754 22.6858 17.5C22.6858 16.1246 22.1395 14.8056 21.1669 13.8331C20.1944 12.8605 18.8754 12.3142 17.5 12.3142C16.1246 12.3142 14.8056 12.8605 13.8331 13.8331C12.8605 14.8056 12.3142 16.1246 12.3142 17.5C12.3142 18.8754 12.8605 20.1944 13.8331 21.1669C14.8056 22.1395 16.1246 22.6858 17.5 22.6858ZM26.5738 10.3702C26.058 10.3702 25.5633 10.1653 25.1987 9.80062C24.834 9.43592 24.6291 8.94128 24.6291 8.42552C24.6291 7.90976 24.834 7.41512 25.1987 7.05042C25.5633 6.68572 26.058 6.48083 26.5738 6.48083C27.0895 6.48083 27.5842 6.68572 27.9489 7.05042C28.3136 7.41512 28.5184 7.90976 28.5184 8.42552C28.5184 8.94128 28.3136 9.43592 27.9489 9.80062C27.5842 10.1653 27.0895 10.3702 26.5738 10.3702Z" fill="#B7B7B7"/>
</svg>
