<svg width="36" height="35" viewBox="0 0 36 35" fill="none" xmlns="http://www.w3.org/2000/svg">
<path d="M18 0C8.05982 0 0 7.83594 0 17.5C0 27.1641 8.05982 35 18 35C27.9402 35 36 27.1641 36 17.5C36 7.83594 27.9402 0 18 0ZM26.6504 13.1914C26.6625 13.375 26.6625 13.5664 26.6625 13.7539C26.6625 19.4883 22.1705 26.0938 13.9621 26.0938C11.4308 26.0938 9.08437 25.3789 7.10759 24.1484C7.4692 24.1875 7.81473 24.2031 8.18438 24.2031C10.2737 24.2031 12.1942 23.5156 13.725 22.3516C11.7643 22.3125 10.117 21.0625 9.55446 19.3438C10.2415 19.4414 10.8603 19.4414 11.5674 19.2656C10.5578 19.0662 9.65039 18.5331 8.99926 17.757C8.34813 16.9808 7.99347 16.0094 7.99554 15.0078V14.9531C8.58616 15.2773 9.28125 15.4766 10.0085 15.5039C9.39714 15.1078 8.89577 14.5711 8.54884 13.9415C8.20191 13.3119 8.02014 12.6088 8.01964 11.8945C8.01964 11.0859 8.23661 10.3477 8.62634 9.70703C9.74693 11.0482 11.1453 12.1451 12.7304 12.9264C14.3156 13.7078 16.0522 14.1561 17.8272 14.2422C17.1964 11.293 19.4625 8.90625 22.1866 8.90625C23.4723 8.90625 24.6295 9.42969 25.4451 10.2734C26.4536 10.0898 27.4179 9.72266 28.2777 9.23047C27.9442 10.2344 27.2451 11.082 26.317 11.6172C27.217 11.5234 28.0848 11.2813 28.8884 10.9414C28.2817 11.8086 27.5223 12.5781 26.6504 13.1914Z" fill="#B7B7B7"/>
</svg>
